<svg width="24" height="24" viewBox="0 0 24 24" fill="none" xmlns="http://www.w3.org/2000/svg">
<path fill-rule="evenodd" clip-rule="evenodd" d="M16 9C16 8.44772 16.4477 8 17 8H22C22.5523 8 23 8.44772 23 9C23 9.55228 22.5523 10 22 10H17C16.4477 10 16 9.55228 16 9Z" fill="white" fill-opacity="0.6"/>
<path d="M12 18L5 22L7 15L2 9H9L12 2L15 9" fill="white" fill-opacity="0.3"/>
<path fill-rule="evenodd" clip-rule="evenodd" d="M15 13C15 12.4477 15.4477 12 16 12H22C22.5523 12 23 12.4477 23 13C23 13.5523 22.5523 14 22 14H16C15.4477 14 15 13.5523 15 13Z" fill="white" fill-opacity="0.6"/>
<path fill-rule="evenodd" clip-rule="evenodd" d="M14 17C14 16.4477 14.4477 16 15 16H22C22.5523 16 23 16.4477 23 17C23 17.5523 22.5523 18 22 18H15C14.4477 18 14 17.5523 14 17Z" fill="white" fill-opacity="0.6"/>
</svg>
