<svg width="24" height="24" viewBox="0 0 24 24" fill="none" xmlns="http://www.w3.org/2000/svg">
<path fill-rule="evenodd" clip-rule="evenodd" d="M11.9998 2C13.5498 2 15.1098 2.37 16.4898 3.07C19.8898 4.78 21.9998 8.2 21.9998 12C21.9998 17.51 17.5098 22 11.9998 22C8.19979 22 4.77979 19.89 3.06979 16.49C2.81979 16 3.01979 15.4 3.50979 15.15C4.00979 14.9 4.59979 15.1 4.84979 15.59C6.21979 18.31 8.95979 20 11.9998 20C16.4098 20 19.9998 16.41 19.9998 12C19.9998 8.96 18.3098 6.22 15.5898 4.85C14.4798 4.29 13.2398 4 11.9998 4C9.63763 4 7.64978 5.00648 5.64934 7.23944L8.41 10.0001H2V3.59009L4.22939 5.81948C5.88607 3.9884 8.35987 2 11.9998 2Z" fill="white" fill-opacity="0.3"/>
<path d="M12 6C11.45 6 11 6.45 11 7V13C11 13.55 11.45 14 12 14C12.55 14 13 13.55 13 13V7C13 6.45 12.55 6 12 6Z" fill="white" fill-opacity="0.6"/>
<path d="M17 12H12C11.45 12 11 12.45 11 13C11 13.55 11.45 14 12 14H17C17.55 14 18 13.55 18 13C18 12.45 17.55 12 17 12Z" fill="white" fill-opacity="0.6"/>
<path fill-rule="evenodd" clip-rule="evenodd" d="M12 13.5C12.2761 13.5 12.5 13.2761 12.5 13C12.5 12.7239 12.2761 12.5 12 12.5C11.7239 12.5 11.5 12.7239 11.5 13C11.5 13.2761 11.7239 13.5 12 13.5ZM10.5 13C10.5 12.1716 11.1716 11.5 12 11.5C12.8284 11.5 13.5 12.1716 13.5 13C13.5 13.8284 12.8284 14.5 12 14.5C11.1716 14.5 10.5 13.8284 10.5 13Z" fill="white"/>
</svg>
